<svg class="w-full h-auto sm:opacity-0" width="187" height="46" viewBox="0 0 187 46" fill="none" xmlns="http://www.w3.org/2000/svg">
<g clip-path="url(#clip0_386_646)">
<path d="M179.427 1.22177H177.83V0.73877H181.637V1.22177H180.04V4.6871H179.427V1.22177Z" fill="white"></path>
<path d="M182.256 0.73584H183.026L184.566 3.37828L184.625 3.51628H184.633L184.69 3.37828L186.227 0.73584H187.005V4.68673H186.41V1.65073L186.415 1.47951H186.412L186.353 1.61495L184.9 4.07851H184.364L182.908 1.61495L182.851 1.47951H182.846L182.854 1.65073V4.68673H182.261V0.73584H182.256Z" fill="white"></path>
<path d="M0 0.73584H7.3731L22.109 26.0282L22.6738 27.3519H22.7483L23.2874 26.0282L38.0002 0.73584H45.4478V38.5606H39.7408V9.49628L39.7896 7.8454H39.7639L39.2043 9.14362L25.2796 32.7314H20.1374L6.19474 9.14362L5.65562 7.8454H5.60684L5.68386 9.49628V38.5606H0V0.73584Z" fill="white"></path>
<path d="M58.7895 37.099C55.6754 35.6117 53.293 33.4037 51.6372 30.4776C49.9839 27.5463 49.1572 23.9609 49.1572 19.711V19.4324C49.1572 15.2541 49.9813 11.7172 51.6372 8.81156C53.2905 5.90589 55.6754 3.71322 58.7895 2.22844C61.9036 0.741111 65.626 0 69.9595 0C74.293 0 78.072 0.741111 81.1938 2.22844C84.313 3.71067 86.7056 5.90589 88.3718 8.81156C90.0353 11.7172 90.8645 15.2541 90.8645 19.4324V19.711C90.8645 23.9609 90.0302 27.5412 88.3564 30.4622C86.6877 33.3832 84.2924 35.5912 81.1784 37.0837C78.0643 38.5812 74.3367 39.3274 69.9826 39.3274C65.6286 39.3274 61.901 38.5812 58.7869 37.099H58.7895ZM77.9565 32.9437C80.2002 31.8141 81.9203 30.1428 83.1141 27.9297C84.3078 25.7114 84.9034 23.0102 84.9034 19.8158V19.3583C84.9034 16.1997 84.3078 13.5163 83.1141 11.3186C81.9203 9.12078 80.2054 7.46733 77.9719 6.35311C75.7333 5.23889 73.0736 4.68689 69.9852 4.68689C66.8968 4.68689 64.268 5.23889 62.0396 6.35311C59.8164 7.46733 58.1015 9.11822 56.8974 11.3083C55.6985 13.4984 55.0927 16.1843 55.0927 19.3583V19.8158C55.0927 23.0256 55.6985 25.737 56.8974 27.9552C58.1015 30.1683 59.8164 31.8397 62.0396 32.959C64.268 34.0783 66.9174 34.6406 69.9852 34.6406C73.0531 34.6406 75.7127 34.0732 77.9565 32.9437Z" fill="white"></path>
<path d="M132.931 8.81156C131.268 5.90589 128.873 3.71322 125.753 2.22844C122.629 0.741111 118.886 0 114.519 0C110.152 0 106.463 0.741111 103.349 2.22844C100.235 3.71067 97.8526 5.90589 96.1967 8.81156C94.5434 11.7172 93.7168 15.2541 93.7168 19.4324V19.711C93.7168 23.9609 94.5409 27.5463 96.1967 30.4776C97.85 33.4037 100.235 35.6117 103.349 37.099C105.839 38.2848 108.73 38.9978 112.011 39.238V46H117.412V39.2099C120.557 38.9467 123.332 38.2413 125.738 37.0837C128.852 35.5912 131.245 33.3832 132.916 30.4622C134.59 27.5412 135.424 23.9609 135.424 19.711V19.4324C135.424 15.2541 134.595 11.7172 132.931 8.81156ZM129.463 19.8158C129.463 23.0102 128.867 25.7114 127.674 27.9297C126.48 30.1428 124.76 31.8141 122.516 32.9437C120.272 34.0732 117.618 34.6406 114.545 34.6406C111.472 34.6406 108.828 34.0783 106.599 32.959C104.376 31.8397 102.661 30.1683 101.457 27.9552C100.258 25.737 99.6523 23.0256 99.6523 19.8158V19.3583C99.6523 16.1843 100.258 13.4984 101.457 11.3083C102.661 9.11822 104.376 7.46733 106.599 6.35311C108.828 5.23889 111.477 4.68689 114.545 4.68689C117.613 4.68689 120.293 5.23889 122.531 6.35311C124.765 7.46733 126.48 9.11822 127.674 11.3186C128.867 13.5163 129.463 16.1997 129.463 19.3583V19.8158Z" fill="white"></path>
<path d="M147.912 37.099C144.798 35.6117 142.415 33.4037 140.759 30.4776C139.106 27.5463 138.279 23.9609 138.279 19.711V19.4324C138.279 15.2541 139.103 11.7172 140.759 8.81156C142.413 5.90589 144.798 3.71322 147.912 2.22844C151.026 0.741111 154.748 0 159.082 0C163.415 0 167.194 0.741111 170.316 2.22844C173.435 3.71067 175.828 5.90589 177.494 8.81156C179.16 11.7172 179.987 15.2541 179.987 19.4324V19.711C179.987 23.9609 179.152 27.5412 177.478 30.4622C175.81 33.3832 173.414 35.5912 170.3 37.0837C167.186 38.5812 163.459 39.3274 159.105 39.3274C154.751 39.3274 151.023 38.5812 147.909 37.099H147.912ZM167.079 32.9437C169.322 31.8141 171.042 30.1428 172.236 27.9297C173.43 25.7114 174.025 23.0102 174.025 19.8158V19.3583C174.025 16.1997 173.43 13.5163 172.236 11.3186C171.042 9.12078 169.327 7.46733 167.094 6.35311C164.855 5.23889 162.196 4.68689 159.107 4.68689C156.019 4.68689 153.39 5.23889 151.162 6.35311C148.938 7.46733 147.224 9.11822 146.02 11.3083C144.821 13.4984 144.215 16.1843 144.215 19.3583V19.8158C144.215 23.0256 144.821 25.737 146.02 27.9552C147.224 30.1683 148.938 31.8397 151.162 32.959C153.39 34.0783 156.039 34.6406 159.107 34.6406C162.175 34.6406 164.835 34.0732 167.079 32.9437Z" fill="white"></path>
</g>
<defs>
<clipPath id="clip0_386_646">
<rect width="187" height="46" fill="white"></rect>
</clipPath>
</defs>
</svg>